TITLE ""
FILE "Disc6Track05.mp3" MP3
  TRACK 01 AUDIO
    TITLE "Disc6Track05_01"
    INDEX 01 00:00:00
  TRACK 02 AUDIO
    TITLE "Disc6Track05_02"
    INDEX 01 00:00:69
  TRACK 03 AUDIO
    TITLE "Disc6Track05_03"
    INDEX 01 00:03:63
  TRACK 04 AUDIO
    TITLE "Disc6Track05_04"
    INDEX 01 00:04:69
  TRACK 05 AUDIO
    TITLE "Disc6Track05_05"
    INDEX 01 00:06:64
  TRACK 06 AUDIO
    TITLE "Disc6Track05_06"
    INDEX 01 00:07:20
  TRACK 07 AUDIO
    TITLE "Disc6Track05_07"
    INDEX 01 00:08:45
  TRACK 08 AUDIO
    TITLE "Disc6Track05_08"
    INDEX 01 00:09:52
  TRACK 09 AUDIO
    TITLE "Disc6Track05_09"
    INDEX 01 00:11:00
  TRACK 10 AUDIO
    TITLE "Disc6Track05_10"
    INDEX 01 00:13:17
  TRACK 11 AUDIO
    TITLE "Disc6Track05_11"
    INDEX 01 00:13:46
  TRACK 12 AUDIO
    TITLE "Disc6Track05_12"
    INDEX 01 00:14:65
  TRACK 13 AUDIO
    TITLE "Disc6Track05_13"
    INDEX 01 00:16:07
  TRACK 14 AUDIO
    TITLE "Disc6Track05_14"
    INDEX 01 00:17:24
  TRACK 15 AUDIO
    TITLE "Disc6Track05_15"
    INDEX 01 00:19:12
  TRACK 16 AUDIO
    TITLE "Disc6Track05_16"
    INDEX 01 00:19:41
  TRACK 17 AUDIO
    TITLE "Disc6Track05_17"
    INDEX 01 00:20:60
  TRACK 18 AUDIO
    TITLE "Disc6Track05_18"
    INDEX 01 00:23:47
  TRACK 19 AUDIO
    TITLE "Disc6Track05_19"
    INDEX 01 00:24:68
  TRACK 20 AUDIO
    TITLE "Disc6Track05_20"
    INDEX 01 00:25:32
  TRACK 21 AUDIO
    TITLE "Disc6Track05_21"
    INDEX 01 00:26:49
  TRACK 22 AUDIO
    TITLE "Disc6Track05_22"
    INDEX 01 00:27:60
  TRACK 23 AUDIO
    TITLE "Disc6Track05_23"
    INDEX 01 00:29:00
  TRACK 24 AUDIO
    TITLE "Disc6Track05_24"
    INDEX 01 00:31:01
  TRACK 25 AUDIO
    TITLE "Disc6Track05_25"
    INDEX 01 00:31:32
  TRACK 26 AUDIO
    TITLE "Disc6Track05_26"
    INDEX 01 00:32:38
  TRACK 27 AUDIO
    TITLE "Disc6Track05_27"
    INDEX 01 00:34:39
  TRACK 28 AUDIO
    TITLE "Disc6Track05_28"
    INDEX 01 00:35:42
  TRACK 29 AUDIO
    TITLE "Disc6Track05_29"
    INDEX 01 00:37:23
  TRACK 30 AUDIO
    TITLE "Disc6Track05_30"
    INDEX 01 00:37:53
  TRACK 31 AUDIO
    TITLE "Disc6Track05_31"
    INDEX 01 00:39:03
  TRACK 32 AUDIO
    TITLE "Disc6Track05_32"
    INDEX 01 00:41:27
  TRACK 33 AUDIO
    TITLE "Disc6Track05_33"
    INDEX 01 00:42:52
  TRACK 34 AUDIO
    TITLE "Disc6Track05_34"
    INDEX 01 00:43:10
  TRACK 35 AUDIO
    TITLE "Disc6Track05_35"
    INDEX 01 00:44:19
  TRACK 36 AUDIO
    TITLE "Disc6Track05_36"
    INDEX 01 00:46:03
  TRACK 37 AUDIO
    TITLE "Disc6Track05_37"
    INDEX 01 00:47:10
  TRACK 38 AUDIO
    TITLE "Disc6Track05_38"
    INDEX 01 00:49:28
  TRACK 39 AUDIO
    TITLE "Disc6Track05_39"
    INDEX 01 00:49:58
  TRACK 40 AUDIO
    TITLE "Disc6Track05_40"
    INDEX 01 00:50:59
  TRACK 41 AUDIO
    TITLE "Disc6Track05_41"
    INDEX 01 00:51:55
  TRACK 42 AUDIO
    TITLE "Disc6Track05_42"
    INDEX 01 00:52:54
  TRACK 43 AUDIO
    TITLE "Disc6Track05_43"
    INDEX 01 00:54:31
  TRACK 44 AUDIO
    TITLE "Disc6Track05_44"
    INDEX 01 00:54:63
  TRACK 45 AUDIO
    TITLE "Disc6Track05_45"
    INDEX 01 00:56:05
  TRACK 46 AUDIO
    TITLE "Disc6Track05_46"
    INDEX 01 00:57:04
  TRACK 47 AUDIO
    TITLE "Disc6Track05_47"
    INDEX 01 00:58:21
  TRACK 48 AUDIO
    TITLE "Disc6Track05_48"
    INDEX 01 01:00:20
  TRACK 49 AUDIO
    TITLE "Disc6Track05_49"
    INDEX 01 01:00:50
  TRACK 50 AUDIO
    TITLE "Disc6Track05_50"
    INDEX 01 01:01:55
  TRACK 51 AUDIO
    TITLE "Disc6Track05_51"
    INDEX 01 01:03:13
  TRACK 52 AUDIO
    TITLE "Disc6Track05_52"
    INDEX 01 01:04:16
  TRACK 53 AUDIO
    TITLE "Disc6Track05_53"
    INDEX 01 01:08:53
  TRACK 54 AUDIO
    TITLE "Disc6Track05_54"
    INDEX 01 01:09:10
  TRACK 55 AUDIO
    TITLE "Disc6Track05_55"
    INDEX 01 01:10:25
  TRACK 56 AUDIO
    TITLE "Disc6Track05_56"
    INDEX 01 01:12:72
  TRACK 57 AUDIO
    TITLE "Disc6Track05_57"
    INDEX 01 01:14:11
  TRACK 58 AUDIO
    TITLE "Disc6Track05_58"
    INDEX 01 01:17:03
  TRACK 59 AUDIO
    TITLE "Disc6Track05_59"
    INDEX 01 01:17:34
  TRACK 60 AUDIO
    TITLE "Disc6Track05_60"
    INDEX 01 01:18:55
  TRACK 61 AUDIO
    TITLE "Disc6Track05_61"
    INDEX 01 01:22:61
  TRACK 62 AUDIO
    TITLE "Disc6Track05_62"
    INDEX 01 01:24:05
  TRACK 63 AUDIO
    TITLE "Disc6Track05_63"
    INDEX 01 01:29:49
  TRACK 64 AUDIO
    TITLE "Disc6Track05_64"
    INDEX 01 01:30:04
  TRACK 65 AUDIO
    TITLE "Disc6Track05_65"
    INDEX 01 01:31:21
  TRACK 66 AUDIO
    TITLE "Disc6Track05_66"
    INDEX 01 01:33:24
  TRACK 67 AUDIO
    TITLE "Disc6Track05_67"
    INDEX 01 01:34:45
  TRACK 68 AUDIO
    TITLE "Disc6Track05_68"
    INDEX 01 01:35:07
  TRACK 69 AUDIO
    TITLE "Disc6Track05_69"
    INDEX 01 01:36:22
  TRACK 70 AUDIO
    TITLE "Disc6Track05_70"
    INDEX 01 01:39:40
  TRACK 71 AUDIO
    TITLE "Disc6Track05_71"
    INDEX 01 01:40:53
  TRACK 72 AUDIO
    TITLE "Disc6Track05_72"
    INDEX 01 01:42:66
  TRACK 73 AUDIO
    TITLE "Disc6Track05_73"
    INDEX 01 01:43:18
  TRACK 74 AUDIO
    TITLE "Disc6Track05_74"
    INDEX 01 01:44:35
  TRACK 75 AUDIO
    TITLE "Disc6Track05_75"
    INDEX 01 01:46:52
  TRACK 76 AUDIO
    TITLE "Disc6Track05_76"
    INDEX 01 01:47:67
  TRACK 77 AUDIO
    TITLE "Disc6Track05_77"
    INDEX 01 01:51:47
